<mxfile host="app.diagrams.net" agent="Mozilla/5.0 (Windows NT 10.0; Win64; x64) AppleWebKit/537.36 (KHTML, like Gecko) Chrome/127.0.0.0 Safari/537.36" version="24.7.6">
  <diagram id="C5RBs43oDa-KdzZeNtuy" name="Page-1">
    <mxGraphModel dx="2514" dy="918" grid="1" gridSize="10" guides="1" tooltips="1" connect="1" arrows="1" fold="1" page="1" pageScale="1" pageWidth="827" pageHeight="1169" math="0" shadow="0">
      <root>
        <mxCell id="WIyWlLk6GJQsqaUBKTNV-0" />
        <mxCell id="WIyWlLk6GJQsqaUBKTNV-1" parent="WIyWlLk6GJQsqaUBKTNV-0" />
        <mxCell id="DGUVQP3vxUFLmqlnk7Kc-13" style="edgeStyle=none;rounded=0;orthogonalLoop=1;jettySize=auto;html=1;exitX=1;exitY=1;exitDx=0;exitDy=0;entryX=0;entryY=0.5;entryDx=0;entryDy=0;shape=link;strokeColor=default;" parent="WIyWlLk6GJQsqaUBKTNV-1" source="Z3A2DweLcwm7mIKLp8iE-2" target="DGUVQP3vxUFLmqlnk7Kc-0" edge="1">
          <mxGeometry relative="1" as="geometry" />
        </mxCell>
        <mxCell id="Z3A2DweLcwm7mIKLp8iE-2" value="Nombre" style="ellipse;whiteSpace=wrap;html=1;" parent="WIyWlLk6GJQsqaUBKTNV-1" vertex="1">
          <mxGeometry x="40" y="100" width="90" height="50" as="geometry" />
        </mxCell>
        <mxCell id="Z3A2DweLcwm7mIKLp8iE-3" value="Nombre" style="ellipse;whiteSpace=wrap;html=1;" parent="WIyWlLk6GJQsqaUBKTNV-1" vertex="1">
          <mxGeometry x="145" y="640" width="90" height="50" as="geometry" />
        </mxCell>
        <mxCell id="Z3A2DweLcwm7mIKLp8iE-4" value="Username" style="ellipse;whiteSpace=wrap;html=1;" parent="WIyWlLk6GJQsqaUBKTNV-1" vertex="1">
          <mxGeometry x="280" y="100" width="120" height="50" as="geometry" />
        </mxCell>
        <mxCell id="DGUVQP3vxUFLmqlnk7Kc-7" style="rounded=0;orthogonalLoop=1;jettySize=auto;html=1;exitX=0.5;exitY=0;exitDx=0;exitDy=0;entryX=0.5;entryY=1;entryDx=0;entryDy=0;shape=link;" parent="WIyWlLk6GJQsqaUBKTNV-1" source="DGUVQP3vxUFLmqlnk7Kc-0" target="Z3A2DweLcwm7mIKLp8iE-4" edge="1">
          <mxGeometry relative="1" as="geometry" />
        </mxCell>
        <mxCell id="DGUVQP3vxUFLmqlnk7Kc-10" style="edgeStyle=none;rounded=0;orthogonalLoop=1;jettySize=auto;html=1;exitX=1;exitY=0.5;exitDx=0;exitDy=0;entryX=0;entryY=0.5;entryDx=0;entryDy=0;shape=link;" parent="WIyWlLk6GJQsqaUBKTNV-1" source="DGUVQP3vxUFLmqlnk7Kc-0" target="DGUVQP3vxUFLmqlnk7Kc-5" edge="1">
          <mxGeometry relative="1" as="geometry" />
        </mxCell>
        <mxCell id="DGUVQP3vxUFLmqlnk7Kc-23" style="edgeStyle=orthogonalEdgeStyle;rounded=0;orthogonalLoop=1;jettySize=auto;html=1;exitX=0.5;exitY=1;exitDx=0;exitDy=0;entryX=0.5;entryY=0;entryDx=0;entryDy=0;shape=link;" parent="WIyWlLk6GJQsqaUBKTNV-1" source="DGUVQP3vxUFLmqlnk7Kc-0" target="DGUVQP3vxUFLmqlnk7Kc-22" edge="1">
          <mxGeometry relative="1" as="geometry" />
        </mxCell>
        <mxCell id="AHa5IH6jf7pjy7pJhFZH-3" style="edgeStyle=orthogonalEdgeStyle;rounded=0;orthogonalLoop=1;jettySize=auto;html=1;exitX=0.25;exitY=1;exitDx=0;exitDy=0;shape=link;" parent="WIyWlLk6GJQsqaUBKTNV-1" source="DGUVQP3vxUFLmqlnk7Kc-0" edge="1">
          <mxGeometry relative="1" as="geometry">
            <mxPoint x="-60" y="370" as="targetPoint" />
            <Array as="points">
              <mxPoint x="240" y="370" />
              <mxPoint x="-130" y="370" />
            </Array>
          </mxGeometry>
        </mxCell>
        <mxCell id="AHa5IH6jf7pjy7pJhFZH-27" style="edgeStyle=orthogonalEdgeStyle;rounded=0;orthogonalLoop=1;jettySize=auto;html=1;exitX=0.75;exitY=1;exitDx=0;exitDy=0;entryX=0.5;entryY=0;entryDx=0;entryDy=0;shape=link;" parent="WIyWlLk6GJQsqaUBKTNV-1" source="DGUVQP3vxUFLmqlnk7Kc-0" target="AHa5IH6jf7pjy7pJhFZH-25" edge="1">
          <mxGeometry relative="1" as="geometry">
            <Array as="points">
              <mxPoint x="300" y="350" />
              <mxPoint x="504" y="350" />
            </Array>
          </mxGeometry>
        </mxCell>
        <mxCell id="DGUVQP3vxUFLmqlnk7Kc-0" value="Usuario" style="rounded=0;whiteSpace=wrap;html=1;" parent="WIyWlLk6GJQsqaUBKTNV-1" vertex="1">
          <mxGeometry x="210" y="185" width="120" height="60" as="geometry" />
        </mxCell>
        <mxCell id="DGUVQP3vxUFLmqlnk7Kc-15" style="edgeStyle=none;rounded=0;orthogonalLoop=1;jettySize=auto;html=1;exitX=1;exitY=0.5;exitDx=0;exitDy=0;entryX=0;entryY=0.5;entryDx=0;entryDy=0;shape=link;" parent="WIyWlLk6GJQsqaUBKTNV-1" source="DGUVQP3vxUFLmqlnk7Kc-1" target="DGUVQP3vxUFLmqlnk7Kc-0" edge="1">
          <mxGeometry relative="1" as="geometry" />
        </mxCell>
        <mxCell id="DGUVQP3vxUFLmqlnk7Kc-1" value="&lt;u&gt;ID&lt;/u&gt;" style="ellipse;whiteSpace=wrap;html=1;" parent="WIyWlLk6GJQsqaUBKTNV-1" vertex="1">
          <mxGeometry x="40" y="190" width="90" height="50" as="geometry" />
        </mxCell>
        <mxCell id="DGUVQP3vxUFLmqlnk7Kc-16" style="edgeStyle=none;rounded=0;orthogonalLoop=1;jettySize=auto;html=1;exitX=1;exitY=0;exitDx=0;exitDy=0;entryX=1;entryY=0.25;entryDx=0;entryDy=0;shape=link;" parent="WIyWlLk6GJQsqaUBKTNV-1" source="DGUVQP3vxUFLmqlnk7Kc-4" target="DGUVQP3vxUFLmqlnk7Kc-0" edge="1">
          <mxGeometry relative="1" as="geometry" />
        </mxCell>
        <mxCell id="DGUVQP3vxUFLmqlnk7Kc-4" value="Email" style="ellipse;whiteSpace=wrap;html=1;" parent="WIyWlLk6GJQsqaUBKTNV-1" vertex="1">
          <mxGeometry x="430" y="100" width="120" height="50" as="geometry" />
        </mxCell>
        <mxCell id="DGUVQP3vxUFLmqlnk7Kc-5" value="Password" style="ellipse;whiteSpace=wrap;html=1;" parent="WIyWlLk6GJQsqaUBKTNV-1" vertex="1">
          <mxGeometry x="430" y="190" width="120" height="50" as="geometry" />
        </mxCell>
        <mxCell id="DGUVQP3vxUFLmqlnk7Kc-20" style="edgeStyle=none;rounded=0;orthogonalLoop=1;jettySize=auto;html=1;exitX=0.25;exitY=1;exitDx=0;exitDy=0;entryX=0.5;entryY=0;entryDx=0;entryDy=0;shape=link;" parent="WIyWlLk6GJQsqaUBKTNV-1" source="DGUVQP3vxUFLmqlnk7Kc-17" target="DGUVQP3vxUFLmqlnk7Kc-18" edge="1">
          <mxGeometry relative="1" as="geometry" />
        </mxCell>
        <mxCell id="DGUVQP3vxUFLmqlnk7Kc-21" style="edgeStyle=none;rounded=0;orthogonalLoop=1;jettySize=auto;html=1;exitX=0.5;exitY=1;exitDx=0;exitDy=0;entryX=0.5;entryY=0;entryDx=0;entryDy=0;shape=link;" parent="WIyWlLk6GJQsqaUBKTNV-1" source="DGUVQP3vxUFLmqlnk7Kc-17" target="Z3A2DweLcwm7mIKLp8iE-3" edge="1">
          <mxGeometry relative="1" as="geometry" />
        </mxCell>
        <mxCell id="DGUVQP3vxUFLmqlnk7Kc-17" value="Jerarquia" style="rounded=0;whiteSpace=wrap;html=1;" parent="WIyWlLk6GJQsqaUBKTNV-1" vertex="1">
          <mxGeometry x="100" y="530" width="120" height="60" as="geometry" />
        </mxCell>
        <mxCell id="DGUVQP3vxUFLmqlnk7Kc-18" value="&lt;u&gt;ID&lt;/u&gt;" style="ellipse;whiteSpace=wrap;html=1;" parent="WIyWlLk6GJQsqaUBKTNV-1" vertex="1">
          <mxGeometry x="25" y="640" width="90" height="50" as="geometry" />
        </mxCell>
        <mxCell id="DGUVQP3vxUFLmqlnk7Kc-33" style="edgeStyle=none;rounded=0;orthogonalLoop=1;jettySize=auto;html=1;exitX=0.5;exitY=1;exitDx=0;exitDy=0;entryX=0.5;entryY=0;entryDx=0;entryDy=0;shape=link;" parent="WIyWlLk6GJQsqaUBKTNV-1" source="DGUVQP3vxUFLmqlnk7Kc-19" target="DGUVQP3vxUFLmqlnk7Kc-0" edge="1">
          <mxGeometry relative="1" as="geometry" />
        </mxCell>
        <mxCell id="DGUVQP3vxUFLmqlnk7Kc-19" value="Apellido" style="ellipse;whiteSpace=wrap;html=1;" parent="WIyWlLk6GJQsqaUBKTNV-1" vertex="1">
          <mxGeometry x="160" y="100" width="90" height="50" as="geometry" />
        </mxCell>
        <mxCell id="DGUVQP3vxUFLmqlnk7Kc-31" style="edgeStyle=orthogonalEdgeStyle;rounded=0;orthogonalLoop=1;jettySize=auto;html=1;exitX=0.5;exitY=1;exitDx=0;exitDy=0;entryX=0.5;entryY=0;entryDx=0;entryDy=0;shape=link;" parent="WIyWlLk6GJQsqaUBKTNV-1" source="DGUVQP3vxUFLmqlnk7Kc-22" target="DGUVQP3vxUFLmqlnk7Kc-17" edge="1">
          <mxGeometry relative="1" as="geometry" />
        </mxCell>
        <mxCell id="DGUVQP3vxUFLmqlnk7Kc-22" value="Su jerarquia es" style="rhombus;whiteSpace=wrap;html=1;" parent="WIyWlLk6GJQsqaUBKTNV-1" vertex="1">
          <mxGeometry x="180" y="380" width="180" height="80" as="geometry" />
        </mxCell>
        <mxCell id="DGUVQP3vxUFLmqlnk7Kc-25" value="N" style="text;html=1;align=center;verticalAlign=middle;whiteSpace=wrap;rounded=0;" parent="WIyWlLk6GJQsqaUBKTNV-1" vertex="1">
          <mxGeometry x="270" y="240" width="20" height="30" as="geometry" />
        </mxCell>
        <mxCell id="DGUVQP3vxUFLmqlnk7Kc-32" value="1" style="text;html=1;align=center;verticalAlign=middle;whiteSpace=wrap;rounded=0;" parent="WIyWlLk6GJQsqaUBKTNV-1" vertex="1">
          <mxGeometry x="140" y="500" width="20" height="30" as="geometry" />
        </mxCell>
        <mxCell id="AHa5IH6jf7pjy7pJhFZH-6" style="edgeStyle=orthogonalEdgeStyle;rounded=0;orthogonalLoop=1;jettySize=auto;html=1;exitX=0.5;exitY=1;exitDx=0;exitDy=0;entryX=0.5;entryY=0;entryDx=0;entryDy=0;shape=link;" parent="WIyWlLk6GJQsqaUBKTNV-1" source="AHa5IH6jf7pjy7pJhFZH-0" target="AHa5IH6jf7pjy7pJhFZH-2" edge="1">
          <mxGeometry relative="1" as="geometry" />
        </mxCell>
        <mxCell id="AHa5IH6jf7pjy7pJhFZH-7" style="edgeStyle=orthogonalEdgeStyle;rounded=0;orthogonalLoop=1;jettySize=auto;html=1;exitX=0.5;exitY=1;exitDx=0;exitDy=0;entryX=0.5;entryY=0;entryDx=0;entryDy=0;shape=link;" parent="WIyWlLk6GJQsqaUBKTNV-1" source="AHa5IH6jf7pjy7pJhFZH-0" target="AHa5IH6jf7pjy7pJhFZH-1" edge="1">
          <mxGeometry relative="1" as="geometry" />
        </mxCell>
        <mxCell id="AHa5IH6jf7pjy7pJhFZH-0" value="Tipo Usuario" style="rounded=0;whiteSpace=wrap;html=1;" parent="WIyWlLk6GJQsqaUBKTNV-1" vertex="1">
          <mxGeometry x="-200" y="530" width="120" height="60" as="geometry" />
        </mxCell>
        <mxCell id="AHa5IH6jf7pjy7pJhFZH-1" value="&lt;u&gt;ID&lt;/u&gt;" style="ellipse;whiteSpace=wrap;html=1;" parent="WIyWlLk6GJQsqaUBKTNV-1" vertex="1">
          <mxGeometry x="-260" y="640" width="90" height="50" as="geometry" />
        </mxCell>
        <mxCell id="AHa5IH6jf7pjy7pJhFZH-2" value="Nombre" style="ellipse;whiteSpace=wrap;html=1;" parent="WIyWlLk6GJQsqaUBKTNV-1" vertex="1">
          <mxGeometry x="-120" y="640" width="90" height="50" as="geometry" />
        </mxCell>
        <mxCell id="AHa5IH6jf7pjy7pJhFZH-5" style="edgeStyle=orthogonalEdgeStyle;rounded=0;orthogonalLoop=1;jettySize=auto;html=1;exitX=0.5;exitY=1;exitDx=0;exitDy=0;shape=link;" parent="WIyWlLk6GJQsqaUBKTNV-1" source="AHa5IH6jf7pjy7pJhFZH-4" target="AHa5IH6jf7pjy7pJhFZH-0" edge="1">
          <mxGeometry relative="1" as="geometry" />
        </mxCell>
        <mxCell id="AHa5IH6jf7pjy7pJhFZH-4" value="La usa para" style="rhombus;whiteSpace=wrap;html=1;" parent="WIyWlLk6GJQsqaUBKTNV-1" vertex="1">
          <mxGeometry x="-230" y="330" width="180" height="80" as="geometry" />
        </mxCell>
        <mxCell id="AHa5IH6jf7pjy7pJhFZH-8" value="N" style="text;html=1;align=center;verticalAlign=middle;whiteSpace=wrap;rounded=0;" parent="WIyWlLk6GJQsqaUBKTNV-1" vertex="1">
          <mxGeometry x="240" y="240" width="20" height="30" as="geometry" />
        </mxCell>
        <mxCell id="AHa5IH6jf7pjy7pJhFZH-9" value="1" style="text;html=1;align=center;verticalAlign=middle;whiteSpace=wrap;rounded=0;" parent="WIyWlLk6GJQsqaUBKTNV-1" vertex="1">
          <mxGeometry x="-140" y="500" width="20" height="30" as="geometry" />
        </mxCell>
        <mxCell id="AHa5IH6jf7pjy7pJhFZH-39" style="edgeStyle=orthogonalEdgeStyle;rounded=0;orthogonalLoop=1;jettySize=auto;html=1;exitX=0;exitY=0.5;exitDx=0;exitDy=0;shape=link;entryX=1;entryY=0.5;entryDx=0;entryDy=0;" parent="WIyWlLk6GJQsqaUBKTNV-1" source="AHa5IH6jf7pjy7pJhFZH-10" target="AHa5IH6jf7pjy7pJhFZH-40" edge="1">
          <mxGeometry relative="1" as="geometry">
            <mxPoint x="480" y="560" as="targetPoint" />
          </mxGeometry>
        </mxCell>
        <mxCell id="AHa5IH6jf7pjy7pJhFZH-10" value="Analisis" style="rounded=0;whiteSpace=wrap;html=1;" parent="WIyWlLk6GJQsqaUBKTNV-1" vertex="1">
          <mxGeometry x="680" y="530" width="120" height="60" as="geometry" />
        </mxCell>
        <mxCell id="AHa5IH6jf7pjy7pJhFZH-18" style="edgeStyle=orthogonalEdgeStyle;rounded=0;orthogonalLoop=1;jettySize=auto;html=1;exitX=0.5;exitY=1;exitDx=0;exitDy=0;shape=link;" parent="WIyWlLk6GJQsqaUBKTNV-1" source="AHa5IH6jf7pjy7pJhFZH-11" target="AHa5IH6jf7pjy7pJhFZH-10" edge="1">
          <mxGeometry relative="1" as="geometry" />
        </mxCell>
        <mxCell id="AHa5IH6jf7pjy7pJhFZH-11" value="&lt;u&gt;ID&lt;/u&gt;" style="ellipse;whiteSpace=wrap;html=1;" parent="WIyWlLk6GJQsqaUBKTNV-1" vertex="1">
          <mxGeometry x="620" y="410" width="120" height="50" as="geometry" />
        </mxCell>
        <mxCell id="AHa5IH6jf7pjy7pJhFZH-19" style="edgeStyle=orthogonalEdgeStyle;rounded=0;orthogonalLoop=1;jettySize=auto;html=1;exitX=0.5;exitY=1;exitDx=0;exitDy=0;entryX=0.75;entryY=0;entryDx=0;entryDy=0;shape=link;" parent="WIyWlLk6GJQsqaUBKTNV-1" source="AHa5IH6jf7pjy7pJhFZH-12" target="AHa5IH6jf7pjy7pJhFZH-10" edge="1">
          <mxGeometry relative="1" as="geometry" />
        </mxCell>
        <mxCell id="AHa5IH6jf7pjy7pJhFZH-12" value="Imagen" style="ellipse;whiteSpace=wrap;html=1;" parent="WIyWlLk6GJQsqaUBKTNV-1" vertex="1">
          <mxGeometry x="770" y="410" width="120" height="50" as="geometry" />
        </mxCell>
        <mxCell id="AHa5IH6jf7pjy7pJhFZH-20" style="edgeStyle=orthogonalEdgeStyle;rounded=0;orthogonalLoop=1;jettySize=auto;html=1;exitX=0;exitY=1;exitDx=0;exitDy=0;entryX=1;entryY=0.25;entryDx=0;entryDy=0;shape=link;" parent="WIyWlLk6GJQsqaUBKTNV-1" source="AHa5IH6jf7pjy7pJhFZH-13" target="AHa5IH6jf7pjy7pJhFZH-10" edge="1">
          <mxGeometry relative="1" as="geometry" />
        </mxCell>
        <mxCell id="AHa5IH6jf7pjy7pJhFZH-13" value="Usuario" style="ellipse;whiteSpace=wrap;html=1;" parent="WIyWlLk6GJQsqaUBKTNV-1" vertex="1">
          <mxGeometry x="880" y="465" width="120" height="50" as="geometry" />
        </mxCell>
        <mxCell id="AHa5IH6jf7pjy7pJhFZH-23" style="edgeStyle=orthogonalEdgeStyle;rounded=0;orthogonalLoop=1;jettySize=auto;html=1;exitX=0;exitY=0;exitDx=0;exitDy=0;entryX=0.75;entryY=1;entryDx=0;entryDy=0;shape=link;" parent="WIyWlLk6GJQsqaUBKTNV-1" source="AHa5IH6jf7pjy7pJhFZH-14" target="AHa5IH6jf7pjy7pJhFZH-10" edge="1">
          <mxGeometry relative="1" as="geometry" />
        </mxCell>
        <mxCell id="AHa5IH6jf7pjy7pJhFZH-14" value="Resultado" style="ellipse;whiteSpace=wrap;html=1;" parent="WIyWlLk6GJQsqaUBKTNV-1" vertex="1">
          <mxGeometry x="900" y="610" width="120" height="50" as="geometry" />
        </mxCell>
        <mxCell id="AHa5IH6jf7pjy7pJhFZH-15" value="Fecha" style="ellipse;whiteSpace=wrap;html=1;" parent="WIyWlLk6GJQsqaUBKTNV-1" vertex="1">
          <mxGeometry x="671" y="660" width="120" height="50" as="geometry" />
        </mxCell>
        <mxCell id="AHa5IH6jf7pjy7pJhFZH-24" style="edgeStyle=orthogonalEdgeStyle;rounded=0;orthogonalLoop=1;jettySize=auto;html=1;exitX=0.5;exitY=0;exitDx=0;exitDy=0;entryX=0.431;entryY=0.993;entryDx=0;entryDy=0;entryPerimeter=0;shape=link;" parent="WIyWlLk6GJQsqaUBKTNV-1" source="AHa5IH6jf7pjy7pJhFZH-15" target="AHa5IH6jf7pjy7pJhFZH-10" edge="1">
          <mxGeometry relative="1" as="geometry" />
        </mxCell>
        <mxCell id="AHa5IH6jf7pjy7pJhFZH-26" style="edgeStyle=orthogonalEdgeStyle;rounded=0;orthogonalLoop=1;jettySize=auto;html=1;exitX=0.5;exitY=1;exitDx=0;exitDy=0;entryX=0;entryY=0.25;entryDx=0;entryDy=0;shape=link;" parent="WIyWlLk6GJQsqaUBKTNV-1" source="AHa5IH6jf7pjy7pJhFZH-25" target="AHa5IH6jf7pjy7pJhFZH-10" edge="1">
          <mxGeometry relative="1" as="geometry" />
        </mxCell>
        <mxCell id="AHa5IH6jf7pjy7pJhFZH-25" value="Pertenece a&amp;nbsp;" style="rhombus;whiteSpace=wrap;html=1;" parent="WIyWlLk6GJQsqaUBKTNV-1" vertex="1">
          <mxGeometry x="414" y="400" width="180" height="80" as="geometry" />
        </mxCell>
        <mxCell id="AHa5IH6jf7pjy7pJhFZH-28" value="N" style="text;html=1;align=center;verticalAlign=middle;whiteSpace=wrap;rounded=0;" parent="WIyWlLk6GJQsqaUBKTNV-1" vertex="1">
          <mxGeometry x="660" y="524" width="20" height="20" as="geometry" />
        </mxCell>
        <mxCell id="AHa5IH6jf7pjy7pJhFZH-31" value="M" style="text;html=1;align=center;verticalAlign=middle;whiteSpace=wrap;rounded=0;" parent="WIyWlLk6GJQsqaUBKTNV-1" vertex="1">
          <mxGeometry x="300" y="245" width="20" height="20" as="geometry" />
        </mxCell>
        <mxCell id="AHa5IH6jf7pjy7pJhFZH-37" style="edgeStyle=orthogonalEdgeStyle;rounded=0;orthogonalLoop=1;jettySize=auto;html=1;exitX=0.75;exitY=1;exitDx=0;exitDy=0;entryX=0.5;entryY=0;entryDx=0;entryDy=0;shape=link;" parent="WIyWlLk6GJQsqaUBKTNV-1" source="AHa5IH6jf7pjy7pJhFZH-34" target="AHa5IH6jf7pjy7pJhFZH-36" edge="1">
          <mxGeometry relative="1" as="geometry">
            <mxPoint x="364" y="799.9999999999998" as="targetPoint" />
          </mxGeometry>
        </mxCell>
        <mxCell id="AHa5IH6jf7pjy7pJhFZH-38" style="edgeStyle=orthogonalEdgeStyle;rounded=0;orthogonalLoop=1;jettySize=auto;html=1;exitX=0.25;exitY=1;exitDx=0;exitDy=0;entryX=0.5;entryY=0;entryDx=0;entryDy=0;shape=link;" parent="WIyWlLk6GJQsqaUBKTNV-1" source="AHa5IH6jf7pjy7pJhFZH-34" target="AHa5IH6jf7pjy7pJhFZH-35" edge="1">
          <mxGeometry relative="1" as="geometry">
            <mxPoint x="265" y="804.9999999999998" as="targetPoint" />
          </mxGeometry>
        </mxCell>
        <mxCell id="AHa5IH6jf7pjy7pJhFZH-34" value="Sintoma" style="rounded=0;whiteSpace=wrap;html=1;" parent="WIyWlLk6GJQsqaUBKTNV-1" vertex="1">
          <mxGeometry x="240" y="690" width="120" height="60" as="geometry" />
        </mxCell>
        <mxCell id="AHa5IH6jf7pjy7pJhFZH-35" value="&lt;u&gt;ID&lt;/u&gt;" style="ellipse;whiteSpace=wrap;html=1;" parent="WIyWlLk6GJQsqaUBKTNV-1" vertex="1">
          <mxGeometry x="180" y="790" width="90" height="50" as="geometry" />
        </mxCell>
        <mxCell id="AHa5IH6jf7pjy7pJhFZH-36" value="Nombre" style="ellipse;whiteSpace=wrap;html=1;" parent="WIyWlLk6GJQsqaUBKTNV-1" vertex="1">
          <mxGeometry x="290" y="790" width="90" height="50" as="geometry" />
        </mxCell>
        <mxCell id="AHa5IH6jf7pjy7pJhFZH-41" style="edgeStyle=orthogonalEdgeStyle;rounded=0;orthogonalLoop=1;jettySize=auto;html=1;exitX=0.5;exitY=1;exitDx=0;exitDy=0;entryX=0.5;entryY=0;entryDx=0;entryDy=0;shape=link;" parent="WIyWlLk6GJQsqaUBKTNV-1" source="AHa5IH6jf7pjy7pJhFZH-40" target="AHa5IH6jf7pjy7pJhFZH-34" edge="1">
          <mxGeometry relative="1" as="geometry" />
        </mxCell>
        <mxCell id="AHa5IH6jf7pjy7pJhFZH-40" value="Su sintoma es" style="rhombus;whiteSpace=wrap;html=1;" parent="WIyWlLk6GJQsqaUBKTNV-1" vertex="1">
          <mxGeometry x="234" y="520" width="180" height="80" as="geometry" />
        </mxCell>
        <mxCell id="AHa5IH6jf7pjy7pJhFZH-42" value="N" style="text;html=1;align=center;verticalAlign=middle;whiteSpace=wrap;rounded=0;" parent="WIyWlLk6GJQsqaUBKTNV-1" vertex="1">
          <mxGeometry x="660" y="561" width="20" height="15" as="geometry" />
        </mxCell>
        <mxCell id="AHa5IH6jf7pjy7pJhFZH-43" value="M" style="text;html=1;align=center;verticalAlign=middle;whiteSpace=wrap;rounded=0;" parent="WIyWlLk6GJQsqaUBKTNV-1" vertex="1">
          <mxGeometry x="280" y="670" width="20" height="20" as="geometry" />
        </mxCell>
        <mxCell id="AHa5IH6jf7pjy7pJhFZH-51" style="edgeStyle=orthogonalEdgeStyle;rounded=0;orthogonalLoop=1;jettySize=auto;html=1;exitX=0.75;exitY=1;exitDx=0;exitDy=0;entryX=0.5;entryY=0;entryDx=0;entryDy=0;shape=link;" parent="WIyWlLk6GJQsqaUBKTNV-1" source="AHa5IH6jf7pjy7pJhFZH-48" target="AHa5IH6jf7pjy7pJhFZH-50" edge="1">
          <mxGeometry relative="1" as="geometry" />
        </mxCell>
        <mxCell id="AHa5IH6jf7pjy7pJhFZH-52" style="edgeStyle=orthogonalEdgeStyle;rounded=0;orthogonalLoop=1;jettySize=auto;html=1;exitX=0.25;exitY=1;exitDx=0;exitDy=0;entryX=0.5;entryY=0;entryDx=0;entryDy=0;shape=link;" parent="WIyWlLk6GJQsqaUBKTNV-1" source="AHa5IH6jf7pjy7pJhFZH-48" target="AHa5IH6jf7pjy7pJhFZH-49" edge="1">
          <mxGeometry relative="1" as="geometry">
            <Array as="points">
              <mxPoint x="520" y="770" />
              <mxPoint x="465" y="770" />
            </Array>
          </mxGeometry>
        </mxCell>
        <mxCell id="AHa5IH6jf7pjy7pJhFZH-48" value="Tratamiento" style="rounded=0;whiteSpace=wrap;html=1;" parent="WIyWlLk6GJQsqaUBKTNV-1" vertex="1">
          <mxGeometry x="490" y="695" width="120" height="60" as="geometry" />
        </mxCell>
        <mxCell id="AHa5IH6jf7pjy7pJhFZH-49" value="&lt;u&gt;ID&lt;/u&gt;" style="ellipse;whiteSpace=wrap;html=1;" parent="WIyWlLk6GJQsqaUBKTNV-1" vertex="1">
          <mxGeometry x="420" y="790" width="90" height="50" as="geometry" />
        </mxCell>
        <mxCell id="AHa5IH6jf7pjy7pJhFZH-50" value="Nombre" style="ellipse;whiteSpace=wrap;html=1;" parent="WIyWlLk6GJQsqaUBKTNV-1" vertex="1">
          <mxGeometry x="530" y="790" width="90" height="50" as="geometry" />
        </mxCell>
        <mxCell id="AHa5IH6jf7pjy7pJhFZH-54" style="edgeStyle=orthogonalEdgeStyle;rounded=0;orthogonalLoop=1;jettySize=auto;html=1;exitX=1;exitY=0.5;exitDx=0;exitDy=0;entryX=0.25;entryY=1;entryDx=0;entryDy=0;shape=link;" parent="WIyWlLk6GJQsqaUBKTNV-1" source="AHa5IH6jf7pjy7pJhFZH-53" target="AHa5IH6jf7pjy7pJhFZH-10" edge="1">
          <mxGeometry relative="1" as="geometry" />
        </mxCell>
        <mxCell id="AHa5IH6jf7pjy7pJhFZH-56" style="edgeStyle=orthogonalEdgeStyle;rounded=0;orthogonalLoop=1;jettySize=auto;html=1;exitX=0.5;exitY=1;exitDx=0;exitDy=0;entryX=0.5;entryY=0;entryDx=0;entryDy=0;shape=link;" parent="WIyWlLk6GJQsqaUBKTNV-1" source="AHa5IH6jf7pjy7pJhFZH-53" target="AHa5IH6jf7pjy7pJhFZH-48" edge="1">
          <mxGeometry relative="1" as="geometry" />
        </mxCell>
        <mxCell id="AHa5IH6jf7pjy7pJhFZH-53" value="Se trata con" style="rhombus;whiteSpace=wrap;html=1;" parent="WIyWlLk6GJQsqaUBKTNV-1" vertex="1">
          <mxGeometry x="460" y="590" width="180" height="80" as="geometry" />
        </mxCell>
        <mxCell id="AHa5IH6jf7pjy7pJhFZH-55" value="N" style="text;html=1;align=center;verticalAlign=middle;whiteSpace=wrap;rounded=0;" parent="WIyWlLk6GJQsqaUBKTNV-1" vertex="1">
          <mxGeometry x="690" y="590" width="20" height="15" as="geometry" />
        </mxCell>
        <mxCell id="AHa5IH6jf7pjy7pJhFZH-57" value="M" style="text;html=1;align=center;verticalAlign=middle;whiteSpace=wrap;rounded=0;" parent="WIyWlLk6GJQsqaUBKTNV-1" vertex="1">
          <mxGeometry x="530" y="675" width="20" height="20" as="geometry" />
        </mxCell>
      </root>
    </mxGraphModel>
  </diagram>
</mxfile>
